<?xml version="1.0" encoding="UTF-8" standalone="no"?>
<!-- Generator: Adobe Illustrator 18.1.1, SVG Export Plug-In . SVG Version: 6.00 Build 0)  -->

<svg
   xmlns:dc="http://purl.org/dc/elements/1.1/"
   xmlns:cc="http://creativecommons.org/ns#"
   xmlns:rdf="http://www.w3.org/1999/02/22-rdf-syntax-ns#"
   xmlns:svg="http://www.w3.org/2000/svg"
   xmlns="http://www.w3.org/2000/svg"
   xmlns:sodipodi="http://sodipodi.sourceforge.net/DTD/sodipodi-0.dtd"
   xmlns:inkscape="http://www.inkscape.org/namespaces/inkscape"
   version="1.1"
   id="Capa_1"
   x="0px"
   y="0px"
   viewBox="0 0 475 475"
   style="enable-background:new 0 0 475 475;"
   xml:space="preserve"
   inkscape:version="0.91 r13725"
   sodipodi:docname="info.svg"><metadata
     id="metadata4401"><rdf:RDF><cc:Work
         rdf:about=""><dc:format>image/svg+xml</dc:format><dc:type
           rdf:resource="http://purl.org/dc/dcmitype/StillImage" /></cc:Work></rdf:RDF></metadata><defs
     id="defs4399" /><sodipodi:namedview
     pagecolor="#ffffff"
     bordercolor="#666666"
     borderopacity="1"
     objecttolerance="10"
     gridtolerance="10"
     guidetolerance="10"
     inkscape:pageopacity="0"
     inkscape:pageshadow="2"
     inkscape:window-width="1680"
     inkscape:window-height="1004"
     id="namedview4397"
     showgrid="false"
     inkscape:zoom="0.49684211"
     inkscape:cx="237.5"
     inkscape:cy="237.5"
     inkscape:window-x="0"
     inkscape:window-y="26"
     inkscape:window-maximized="1"
     inkscape:current-layer="Capa_1" /><g
     id="g4355"
     style="fill:#f3ea25;fill-opacity:1"
     inkscape:export-xdpi="12.126316"
     inkscape:export-ydpi="12.126316"><g
       id="g4357"
       style="fill:#f3ea25;fill-opacity:1"><g
         id="g4359"
         style="fill:#f3ea25;fill-opacity:1"><path
           style="fill:#f3ea25;fill-opacity:1"
           d="M238,0C107,0,0,107,0,238s107,237,238,237s237-106,237-237S369,0,238,0z M238,432     c-107,0-194-87-194-194S131,44,238,44s194,87,194,194S345,432,238,432z"
           id="path4361" /><path
           style="fill:#f3ea25;fill-opacity:1"
           d="M270,323l-20,9l26-133c3-14-12-29-28-20l-49,27c-9,5-12,17-7,26s17,12,26,7l12-6l-25,127     c-2,11,7,23,19,23c3,0,6-1,8-2l53-23c10-4,14-15,10-25S280,319,270,323z"
           id="path4363" /><path
           style="fill:#f3ea25;fill-opacity:1"
           d="M257,143c15,0,27-12,27-27s-12-27-27-27s-27,12-27,27S242,143,257,143z"
           id="path4365" /></g></g></g><g
     id="g4367" /><g
     id="g4369" /><g
     id="g4371" /><g
     id="g4373" /><g
     id="g4375" /><g
     id="g4377" /><g
     id="g4379" /><g
     id="g4381" /><g
     id="g4383" /><g
     id="g4385" /><g
     id="g4387" /><g
     id="g4389" /><g
     id="g4391" /><g
     id="g4393" /><g
     id="g4395" /></svg>