<?xml version="1.0" encoding="UTF-8" standalone="no"?>
<!-- Generator: Adobe Illustrator 19.0.0, SVG Export Plug-In . SVG Version: 6.00 Build 0)  -->

<svg
   xmlns:dc="http://purl.org/dc/elements/1.1/"
   xmlns:cc="http://creativecommons.org/ns#"
   xmlns:rdf="http://www.w3.org/1999/02/22-rdf-syntax-ns#"
   xmlns:svg="http://www.w3.org/2000/svg"
   xmlns="http://www.w3.org/2000/svg"
   xmlns:sodipodi="http://sodipodi.sourceforge.net/DTD/sodipodi-0.dtd"
   xmlns:inkscape="http://www.inkscape.org/namespaces/inkscape"
   version="1.1"
   id="Capa_1"
   x="0px"
   y="0px"
   viewBox="0 0 383.506 383.506"
   style="enable-background:new 0 0 383.506 383.506;"
   xml:space="preserve"
   inkscape:version="0.91 r13725"
   sodipodi:docname="sound_on.svg"><metadata
     id="metadata4817"><rdf:RDF><cc:Work
         rdf:about=""><dc:format>image/svg+xml</dc:format><dc:type
           rdf:resource="http://purl.org/dc/dcmitype/StillImage" /></cc:Work></rdf:RDF></metadata><defs
     id="defs4815" /><sodipodi:namedview
     pagecolor="#ffffff"
     bordercolor="#666666"
     borderopacity="1"
     objecttolerance="10"
     gridtolerance="10"
     guidetolerance="10"
     inkscape:pageopacity="0"
     inkscape:pageshadow="2"
     inkscape:window-width="1680"
     inkscape:window-height="1004"
     id="namedview4813"
     showgrid="false"
     inkscape:zoom="0.61537497"
     inkscape:cx="-203.44526"
     inkscape:cy="126.75199"
     inkscape:window-x="0"
     inkscape:window-y="26"
     inkscape:window-maximized="1"
     inkscape:current-layer="Capa_1" /><path
     inkscape:connector-curvature="0"
     id="path4781"
     d="m 9.927,112.806 0,169.005 c 0,9.616 7.867,17.483 17.483,17.483 l 104.608,0 90.622,79.84 c 3.205,2.914 7.285,4.371 11.656,4.371 2.331,0 4.954,-0.583 7.285,-1.457 6.411,-2.914 10.199,-9.033 10.199,-16.026 l 0,-348.5 c 0,-7.285 -4.371,-13.695 -11.073,-16.318 -6.702,-2.622 -14.278,-0.874 -19.232,4.371 l -82.171,89.747 -111.894,0 c -9.616,10e-4 -17.483,7.869 -17.483,17.484 z m 34.966,17.484 101.986,0 c 4.954,0 9.616,-2.04 12.821,-5.536 l 57.112,-62.357 0,265.163 -66.436,-58.569 c -3.205,-2.914 -7.285,-4.371 -11.656,-4.371 l -93.827,0 0,-134.33 z M 312.97,256.752 c 16.609,-18.066 25.642,-41.086 25.642,-65.562 0,-24.185 -9.033,-47.205 -25.059,-64.98 -6.411,-7.285 -5.828,-18.066 1.166,-24.768 7.285,-6.411 18.066,-5.828 24.768,1.166 22.145,24.185 34.092,55.655 34.092,88.582 0,33.218 -12.238,64.98 -34.967,89.165 -3.497,3.788 -8.159,5.536 -12.821,5.536 -4.371,0 -8.45,-1.457 -11.947,-4.662 -6.993,-6.411 -7.576,-17.484 -0.874,-24.477 z"
     style="fill:#f3ea25;fill-opacity:1"
     inkscape:export-xdpi="15.09685"
     inkscape:export-ydpi="15.09685" /><g
     id="g4783"
     inkscape:export-xdpi="15.09685"
     inkscape:export-ydpi="15.09685" /><g
     id="g4785"
     inkscape:export-xdpi="15.09685"
     inkscape:export-ydpi="15.09685" /><g
     id="g4787"
     inkscape:export-xdpi="15.09685"
     inkscape:export-ydpi="15.09685" /><g
     id="g4789"
     inkscape:export-xdpi="15.09685"
     inkscape:export-ydpi="15.09685" /><g
     id="g4791"
     inkscape:export-xdpi="15.09685"
     inkscape:export-ydpi="15.09685" /><g
     id="g4793"
     inkscape:export-xdpi="15.09685"
     inkscape:export-ydpi="15.09685" /><g
     id="g4795"
     inkscape:export-xdpi="15.09685"
     inkscape:export-ydpi="15.09685" /><g
     id="g4797"
     inkscape:export-xdpi="15.09685"
     inkscape:export-ydpi="15.09685" /><g
     id="g4799"
     inkscape:export-xdpi="15.09685"
     inkscape:export-ydpi="15.09685" /><g
     id="g4801"
     inkscape:export-xdpi="15.09685"
     inkscape:export-ydpi="15.09685" /><g
     id="g4803"
     inkscape:export-xdpi="15.09685"
     inkscape:export-ydpi="15.09685" /><g
     id="g4805"
     inkscape:export-xdpi="15.09685"
     inkscape:export-ydpi="15.09685" /><g
     id="g4807"
     inkscape:export-xdpi="15.09685"
     inkscape:export-ydpi="15.09685" /><g
     id="g4809"
     inkscape:export-xdpi="15.09685"
     inkscape:export-ydpi="15.09685" /><g
     id="g4811"
     inkscape:export-xdpi="15.09685"
     inkscape:export-ydpi="15.09685" /></svg>