<?xml version="1.0" encoding="UTF-8" standalone="no"?>
<!-- Generator: Adobe Illustrator 19.0.0, SVG Export Plug-In . SVG Version: 6.00 Build 0)  -->

<svg
   xmlns:dc="http://purl.org/dc/elements/1.1/"
   xmlns:cc="http://creativecommons.org/ns#"
   xmlns:rdf="http://www.w3.org/1999/02/22-rdf-syntax-ns#"
   xmlns:svg="http://www.w3.org/2000/svg"
   xmlns="http://www.w3.org/2000/svg"
   xmlns:sodipodi="http://sodipodi.sourceforge.net/DTD/sodipodi-0.dtd"
   xmlns:inkscape="http://www.inkscape.org/namespaces/inkscape"
   version="1.1"
   id="Capa_1"
   x="0px"
   y="0px"
   viewBox="0 0 478.532 478.532"
   style="enable-background:new 0 0 478.532 478.532;"
   xml:space="preserve"
   inkscape:version="0.91 r13725"
   sodipodi:docname="sound_off.svg"><metadata
     id="metadata7086"><rdf:RDF><cc:Work
         rdf:about=""><dc:format>image/svg+xml</dc:format><dc:type
           rdf:resource="http://purl.org/dc/dcmitype/StillImage" /></cc:Work></rdf:RDF></metadata><defs
     id="defs7084" /><sodipodi:namedview
     pagecolor="#ffffff"
     bordercolor="#666666"
     borderopacity="1"
     objecttolerance="10"
     gridtolerance="10"
     guidetolerance="10"
     inkscape:pageopacity="0"
     inkscape:pageshadow="2"
     inkscape:window-width="1680"
     inkscape:window-height="1004"
     id="namedview7082"
     showgrid="false"
     inkscape:zoom="0.49317495"
     inkscape:cx="239.26601"
     inkscape:cy="239.26601"
     inkscape:window-x="0"
     inkscape:window-y="26"
     inkscape:window-maximized="1"
     inkscape:current-layer="Capa_1" /><g
     id="g7048"
     style="fill:#f3ea25;fill-opacity:1"
     inkscape:export-xdpi="15.046024"
     inkscape:export-ydpi="15.046024"><path
       d="M122.966,346.803l89.747,79.84c3.205,2.914,7.285,4.371,11.656,4.371c2.331,0,4.954-0.583,7.285-1.457   c6.411-2.914,10.199-9.033,10.199-16.026v-348.5c0-7.285-4.371-13.695-11.073-16.318c-6.702-2.622-14.278-0.874-19.232,4.662   l-81.589,89.456H17.483C7.867,142.832,0,150.699,0,160.315V329.32c0,9.616,7.867,17.483,17.483,17.483H122.966z M34.967,177.798   h102.86c4.954,0,9.616-2.04,12.821-5.828l56.238-61.774v264.58l-65.562-58.569c-3.205-2.914-7.285-4.371-11.656-4.371H34.967   V177.798z M473.505,164.103l-60.9,60.9l60.9,60.9c6.702,6.702,6.702,17.775,0,24.768c-3.497,3.497-7.867,5.245-12.238,5.245   s-9.033-1.748-12.238-5.245l-61.191-60.9l-61.191,60.9c-3.497,3.497-7.867,5.245-12.238,5.245s-9.033-1.748-12.238-5.245   c-6.702-6.702-6.702-17.775,0-24.768l60.9-60.9l-60.9-60.9c-6.702-6.702-6.702-17.775,0-24.768c6.702-6.702,17.775-6.702,24.768,0   l60.9,60.9l60.9-60.9c6.702-6.702,17.775-6.702,24.768,0C480.207,146.037,480.207,157.11,473.505,164.103z"
       id="path7050"
       style="fill:#f3ea25;fill-opacity:1" /></g><g
     id="g7052" /><g
     id="g7054" /><g
     id="g7056" /><g
     id="g7058" /><g
     id="g7060" /><g
     id="g7062" /><g
     id="g7064" /><g
     id="g7066" /><g
     id="g7068" /><g
     id="g7070" /><g
     id="g7072" /><g
     id="g7074" /><g
     id="g7076" /><g
     id="g7078" /><g
     id="g7080" /></svg>